<svg xmlns="http://www.w3.org/2000/svg" viewBox="0 0 426.5 426.5"><defs><style>.cls-1{fill:#0e6d7c;}.cls-2{fill:#fff;}</style></defs><g id="レイヤー_2" data-name="レイヤー 2"><g id="文字"><circle class="cls-1" cx="213.25" cy="213.25" r="213.25"/><path class="cls-2" d="M255.56,274.79a76.23,76.23,0,0,0-54.49-67.5V151.48h64.45V139.8H201.07V107.34h64.45V95.66H201.07V69.74H189.39V95.66H124.85v11.68h64.54V139.8H124.85v11.68h64.54V204.8a83.1,83.1,0,0,0-9.89-.62,76.29,76.29,0,1,0,76.06,82.28h67.72V274.79Zm-40.95,30.12a5.38,5.38,0,0,1-1.17-.08,50.38,50.38,0,0,0-16.5-10.27,49.7,49.7,0,0,0-17.44-3.19,49.21,49.21,0,0,0-33.86,13.46,6.16,6.16,0,0,1-1.25.08c-13.85,0-25.22-7.94-25.22-17.75s11.37-17.82,25.22-17.82c.78,0,1.48.15,2.1.15,1.25-13.31,15.5-23.9,33-23.9a37.29,37.29,0,0,1,9.89,1.25,35,35,0,0,1,11.68,5c6.53,4.36,10.82,10.67,11.44,17.67.7,0,1.4-.15,2.1-.15a30.93,30.93,0,0,1,18.14,5.45c4.12,3.11,6.77,7.16,6.93,11.67a2.13,2.13,0,0,1,.08.7C239.76,297,228.55,304.91,214.61,304.91Z"/><path class="cls-2" d="M139.25,287.4c2.57,3.34,3.82,6.85,2.73,7.63s-4.13-1.25-6.7-4.68-3.81-6.85-2.72-7.62S136.69,284,139.25,287.4Z"/><path class="cls-2" d="M150.23,286.54c1.25,4.13,1.25,7.79-.08,8.17s-3.42-2.56-4.67-6.69-1.24-7.71.08-8.1S148.91,282.49,150.23,286.54Z"/><path class="cls-2" d="M168.06,267.39c1.87,3.81,2.33,7.47,1.09,8s-3.74-2.1-5.53-6-2.26-7.47-1-8S166.27,263.5,168.06,267.39Z"/><path class="cls-2" d="M181.53,264.59c0,4.28-1.17,7.7-2.5,7.7s-2.49-3.42-2.49-7.7,1.09-7.79,2.49-7.79S181.53,260.31,181.53,264.59Z"/><path class="cls-2" d="M139.25,287.4c2.57,3.34,3.82,6.85,2.73,7.63s-4.13-1.25-6.7-4.68-3.81-6.85-2.72-7.62S136.69,284,139.25,287.4Z"/><path class="cls-2" d="M150.23,286.54c1.25,4.13,1.25,7.79-.08,8.17s-3.42-2.56-4.67-6.69-1.24-7.71.08-8.1S148.91,282.49,150.23,286.54Z"/><path class="cls-2" d="M168.06,267.39c1.87,3.81,2.33,7.47,1.09,8s-3.74-2.1-5.53-6-2.26-7.47-1-8S166.27,263.5,168.06,267.39Z"/><path class="cls-2" d="M181.53,264.59c0,4.28-1.17,7.7-2.5,7.7s-2.49-3.42-2.49-7.7,1.09-7.79,2.49-7.79S181.53,260.31,181.53,264.59Z"/><path class="cls-2" d="M194.45,269.41c-1.64,3.43-3.74,6-5.06,6.08a1,1,0,0,1-.47-.08c-1.09-.47-.86-3.35.47-6.7.15-.39.31-.85.54-1.32,1.79-3.89,4.28-6.62,5.53-6S196.24,265.6,194.45,269.41Z"/><path class="cls-2" d="M181.53,264.59c0,4.28-1.17,7.7-2.5,7.7s-2.49-3.42-2.49-7.7,1.09-7.79,2.49-7.79S181.53,260.31,181.53,264.59Z"/><path class="cls-2" d="M169.15,275.41c-1.25.62-3.74-2.1-5.53-6s-2.26-7.47-1-8,3.66,2.1,5.45,6S170.39,274.86,169.15,275.41Z"/><path class="cls-2" d="M142,295c-1.09.85-4.13-1.25-6.7-4.68s-3.81-6.85-2.72-7.62,4.13,1.24,6.69,4.67S143.07,294.25,142,295Z"/><path class="cls-2" d="M150.15,294.71c-1.32.39-3.42-2.56-4.67-6.69s-1.24-7.71.08-8.1,3.35,2.57,4.67,6.62S151.48,294.33,150.15,294.71Z"/><path class="cls-2" d="M225.2,286.46a19.41,19.41,0,0,1-1.09,1.64c-2.57,3.42-5.53,5.52-6.62,4.67-.93-.7-.15-3.35,1.79-6.31.31-.46.62-.85.94-1.32,2.56-3.43,5.52-5.53,6.61-4.67C227.77,281.09,227.07,283.66,225.2,286.46Z"/><path class="cls-2" d="M213.91,286.46a14.79,14.79,0,0,1-.39,1.56c-1.25,4.13-3.35,7.08-4.59,6.69s-1.4-4-.08-8.17,3.35-7,4.67-6.62a.08.08,0,0,1,.08.08C214.61,280.39,214.77,283.19,213.91,286.46Z"/></g></g></svg>