<svg xmlns="http://www.w3.org/2000/svg" viewBox="0 0 31 91.61"><defs><style>.cls-1{fill:#4da8b2;}.cls-2{fill:#0c7080;}.cls-3{fill:none;stroke:#0c7080;stroke-linejoin:round;}</style></defs><g id="レイヤー_2" data-name="レイヤー 2"><g id="レイヤー_1-2" data-name="レイヤー 1"><circle class="cls-1" cx="17.5" cy="61" r="13.5"/><path class="cls-2" d="M14.4,45.5A12.5,12.5,0,1,1,1.9,58,12.52,12.52,0,0,1,14.4,45.5m0-1A13.5,13.5,0,1,0,27.9,58,13.49,13.49,0,0,0,14.4,44.5Z" transform="translate(-0.9)"/><polyline class="cls-3" points="13.5 58.5 13.5 0.5 5.5 16"/><path class="cls-2" d="M3.3,85.3V81.62H1.09v-1l2.26-.08.17-2.5H4.63v2.5H8.44v1.07H4.63v3.7c0,1.39.46,2.11,2,2.11a5.05,5.05,0,0,0,1.86-.35l.29,1a6.92,6.92,0,0,1-2.43.46C4,88.52,3.3,87.23,3.3,85.3Z" transform="translate(-0.9)"/><path class="cls-2" d="M10.56,84.46a3.85,3.85,0,1,1,3.84,4.06A3.81,3.81,0,0,1,10.56,84.46Zm6.32,0c0-1.8-1-3-2.48-3s-2.48,1.2-2.48,3,1,3,2.48,3S16.88,86.23,16.88,84.46Z" transform="translate(-0.9)"/><path class="cls-2" d="M20.69,80.55h1.09l.11,1h.05a4.11,4.11,0,0,1,2.69-1.18c2.09,0,3.21,1.55,3.21,4,0,2.64-1.66,4.19-3.53,4.19a3.68,3.68,0,0,1-2.32-1h0L22,89v2.62H20.69Zm5.79,3.78c0-1.71-.64-2.85-2.19-2.85A3.28,3.28,0,0,0,22,82.63V86.5a3.22,3.22,0,0,0,2.06.9C25.46,87.4,26.48,86.25,26.48,84.33Z" transform="translate(-0.9)"/></g></g></svg>