<?xml version="1.0" encoding="utf-8"?>
<!-- Generator: Adobe Illustrator 15.0.0, SVG Export Plug-In  -->
<!DOCTYPE svg PUBLIC "-//W3C//DTD SVG 1.1//EN" "http://www.w3.org/Graphics/SVG/1.1/DTD/svg11.dtd" [
	<!ENTITY ns_flows "http://ns.adobe.com/Flows/1.0/">
]>
<svg version="1.1"
	 xmlns="http://www.w3.org/2000/svg" xmlns:xlink="http://www.w3.org/1999/xlink" xmlns:a="http://ns.adobe.com/AdobeSVGViewerExtensions/3.0/"
	 x="0px" y="0px" width="144px" height="140px" viewBox="0 0 144 140" overflow="visible" enable-background="new 0 0 144 140"
	 xml:space="preserve">
<defs>
</defs>
<rect width="144.47" height="139.957"/>
<path fill="#FFFFFF" d="M43.917,93.451c-0.044-0.065-0.052-0.082-0.052-0.103c0-0.037,0.031-0.044,0.066-0.044
	c0.388,0,0.928,0.432,0.928,0.623c0,0.065-0.034,0.087-0.131,0.153c-0.108,0.065-0.151,0.139-0.299,0.343
	c-0.887,1.266-2.114,1.726-2.217,1.726c-0.043,0-0.059-0.037-0.059-0.051c0-0.029,0.022-0.051,0.205-0.197
	c1.127-0.937,1.638-1.945,1.638-2.208C43.997,93.589,43.982,93.552,43.917,93.451z M46.161,93.398c0.038,0,0.367,0.133,0.732,0.381
	c0.519,0.357,1.178,1.045,1.178,1.535c0,0.11-0.044,0.424-0.366,0.424c-0.263,0-0.388-0.263-0.504-0.644
	c-0.154-0.49-0.271-0.783-0.761-1.301c-0.051-0.052-0.33-0.308-0.33-0.33C46.104,93.437,46.118,93.398,46.161,93.398z"/>
<path fill="#FFFFFF" d="M54.51,94.343c0.046,0,0.125-0.008,0.162-0.008c0.445,0,0.511,0.271,0.511,0.322
	c0,0.205-0.299,0.227-0.607,0.227c-0.166,0-0.898-0.015-1.045-0.015c-1.01,0-2.684,0.095-2.858,0.131
	c-0.088,0.014-0.483,0.131-0.571,0.131c-0.313,0-0.65-0.454-0.65-0.702c0-0.043,0.022-0.087,0.058-0.087
	c0.037,0,0.213,0.08,0.25,0.087c0.125,0.037,0.424,0.067,0.892,0.067C50.89,94.497,53.443,94.401,54.51,94.343z"/>
<path fill="#FFFFFF" d="M56.396,92.924c0.131,0.065,0.424,0.153,0.608,0.153c0.299,0,2.441-0.205,2.755-0.343
	c0.228-0.103,0.257-0.118,0.308-0.118c0.16,0,0.278,0.102,0.504,0.3c0.33,0.292,0.374,0.373,0.374,0.476
	c0,0.094-0.037,0.131-0.168,0.263c-0.117,0.11-0.146,0.169-0.285,0.461c-1.148,2.384-3.701,3.408-3.774,3.408
	c-0.035,0-0.051-0.029-0.051-0.044c0-0.03,0.022-0.044,0.096-0.095c1.271-0.892,2.303-1.857,2.888-2.897
	c0.359-0.628,0.497-1.162,0.497-1.234c0-0.125-0.125-0.132-0.16-0.132c-0.073,0-2.187,0.351-2.632,0.526
	c-0.06,0.022-0.308,0.161-0.366,0.161c-0.169,0-0.753-0.365-0.753-0.768c0-0.138,0.021-0.161,0.065-0.161
	C56.314,92.88,56.381,92.924,56.396,92.924z M61.756,92.895c0,0.102-0.095,0.277-0.228,0.277c-0.115,0-0.174-0.072-0.373-0.351
	c-0.115-0.161-0.188-0.241-0.474-0.475c-0.03-0.022-0.104-0.088-0.104-0.118c0-0.029,0.065-0.051,0.131-0.051
	C61.229,92.178,61.756,92.558,61.756,92.895z M62.312,92.338c0,0.082-0.058,0.219-0.19,0.219c-0.16,0-0.248-0.131-0.372-0.299
	c-0.11-0.147-0.381-0.344-0.608-0.446c-0.072-0.037-0.094-0.067-0.094-0.088c0-0.074,0.219-0.074,0.278-0.074
	C61.631,91.651,62.312,91.87,62.312,92.338z"/>
<path fill="#FFFFFF" d="M66.264,94.686c0,0.051-0.175,0.19-0.196,0.228c-0.023,0.029-0.3,0.701-0.365,0.826
	c-0.703,1.412-1.844,1.879-1.939,1.879c-0.029,0-0.043-0.015-0.043-0.037c0-0.021,0.328-0.314,0.387-0.365
	c1.206-1.156,1.434-2.654,1.434-2.757c0-0.086-0.015-0.219-0.176-0.219c-0.189,0-0.863,0.146-1.162,0.219
	c-0.081,0.022-0.445,0.133-0.528,0.133c-0.364,0-0.576-0.396-0.576-0.557c0-0.043,0.015-0.073,0.052-0.073
	c0.015,0,0.095,0.03,0.109,0.037c0.102,0.029,0.336,0.051,0.461,0.051c0.467,0,2.362-0.205,2.874-0.278
	c0.088-0.014,0.467-0.132,0.548-0.132c0.087,0,0.922,0.161,0.922,0.461c0,0.131-0.117,0.176-0.213,0.176
	c-0.08,0-0.439-0.059-0.511-0.066c-0.154-0.016-0.358-0.037-0.519-0.037c-0.25,0-0.688,0-0.739,0.021
	c-0.052,0.03-0.066,0.073-0.052,0.11C66.036,94.328,66.264,94.621,66.264,94.686z M64.641,92.536c0.228,0,0.308-0.022,1.039-0.182
	c0.19-0.044,0.422-0.088,0.584-0.088c0.153,0,0.418,0.029,0.418,0.242c0,0.211-0.125,0.227-0.558,0.27
	c-0.371,0.044-0.861,0.139-0.972,0.161c-0.037,0.008-0.321,0.065-0.344,0.065c-0.357,0-0.585-0.512-0.548-0.526
	C64.304,92.485,64.597,92.536,64.641,92.536z"/>
<path fill="#FFFFFF" d="M71.555,94.649c0.125,0.081,0.279,0.154,0.279,0.249c0,0.037-0.065,0.206-0.074,0.249
	c-0.015,0.095-0.029,0.212-0.029,1.053c0,0.19,0,0.424,0.015,0.702c0,0.072,0.044,0.446,0.044,0.526c0,0.059,0,0.278-0.16,0.278
	c-0.176,0-0.365-0.285-0.365-0.432c0-0.029,0-0.051,0.035-0.263c0.051-0.263,0.08-0.892,0.08-1.258c0-0.183,0-0.805-0.146-0.805
	c-0.022,0-0.037,0.015-0.153,0.117c-0.856,0.79-1.596,1.097-1.639,1.097c-0.036,0-0.043-0.029-0.043-0.043
	c0-0.037,0.219-0.219,0.293-0.277c1.454-1.201,2.018-2.326,2.018-2.51c0-0.043-0.015-0.108-0.052-0.175
	c-0.006-0.015-0.058-0.103-0.058-0.117c0-0.044,0.044-0.072,0.08-0.072c0.08,0,0.702,0.256,0.702,0.504
	c0,0.059-0.029,0.109-0.059,0.132c-0.139,0.117-0.154,0.125-0.227,0.233c-0.16,0.242-0.205,0.292-0.57,0.761
	C71.526,94.613,71.54,94.642,71.555,94.649z"/>
<path fill="#FFFFFF" d="M79.526,94.343c0.045,0,0.125-0.008,0.162-0.008c0.446,0,0.512,0.271,0.512,0.322
	c0,0.205-0.301,0.227-0.606,0.227c-0.167,0-0.899-0.015-1.045-0.015c-1.011,0-2.684,0.095-2.859,0.131
	c-0.089,0.014-0.484,0.131-0.571,0.131c-0.314,0-0.651-0.454-0.651-0.702c0-0.043,0.023-0.087,0.06-0.087
	c0.037,0,0.211,0.08,0.248,0.087c0.123,0.037,0.425,0.067,0.893,0.067C75.908,94.497,78.46,94.401,79.526,94.343z"/>
<path fill="#FFFFFF" d="M86.198,95.995c0.335,0,0.373,0,0.476-0.131c0.204-0.263,0.227-0.292,0.285-0.292
	c0.109,0,0.592,0.416,0.592,0.519c0,0.103-0.037,0.103-0.388,0.103h-1.258c-0.059,0-0.22,0-0.22,0.197
	c0,0.117,0.022,0.761,0.022,0.841c0,0.168,0,0.395-0.183,0.57c-0.11,0.11-0.285,0.183-0.388,0.183c-0.096,0-0.117-0.051-0.168-0.198
	c-0.029-0.072-0.088-0.226-0.433-0.329c-0.021-0.007-0.08-0.028-0.08-0.043c0-0.022,0.285-0.029,0.328-0.029
	c0.396,0,0.425,0,0.425-0.271c0-0.914-0.007-0.921-0.234-0.921h-2.697c-0.644,0-0.855,0.014-0.923,0.014
	c-0.028,0.007-0.131,0.022-0.152,0.022c-0.03,0-0.044-0.022-0.065-0.051l-0.146-0.168c-0.021-0.03-0.029-0.037-0.029-0.044
	c0-0.015,0.008-0.022,0.029-0.022c0.051,0,0.271,0.022,0.321,0.029c0.358,0.014,0.658,0.021,1.003,0.021h2.712
	c0.103,0,0.147-0.057,0.147-0.131c0-0.095-0.022-0.241-0.037-0.329c-0.008-0.03-0.059-0.146-0.059-0.176s0.014-0.051,0.102-0.051
	c0.082,0,0.66,0.153,0.66,0.292c0,0.037-0.119,0.161-0.133,0.19c-0.015,0.029-0.029,0.073-0.029,0.117
	c0,0.087,0.059,0.087,0.125,0.087H86.198z M85.876,92.982c0.125,0,0.176-0.036,0.219-0.095c0.125-0.175,0.14-0.19,0.19-0.19
	c0.096,0,0.505,0.315,0.505,0.417c0,0.059-0.015,0.074-0.153,0.198c-0.037,0.03-0.06,0.081-0.06,0.22c0,0.263,0.06,1.425,0.06,1.667
	c0,0.241-0.212,0.344-0.373,0.344c-0.146,0-0.169-0.059-0.197-0.175c-0.022-0.096-0.088-0.117-0.213-0.117h-3.18
	c-0.177,0-0.199,0.065-0.22,0.175c-0.045,0.205-0.345,0.227-0.366,0.227c-0.168,0-0.168-0.212-0.168-0.278
	c0-0.257,0.022-1.375,0.022-1.602c0-0.498,0-0.644-0.037-0.877c-0.007-0.03-0.037-0.154-0.037-0.176
	c0-0.037,0.017-0.051,0.045-0.051c0.116,0,0.3,0.088,0.408,0.161c0.198,0.124,0.25,0.153,0.403,0.153h1.06
	c0.059,0,0.221,0,0.221-0.175c0-0.482,0-0.534-0.227-0.534h-1.317c-0.644,0-0.832,0.016-0.93,0.022
	c-0.021,0-0.131,0.014-0.151,0.014c-0.03,0-0.037-0.014-0.067-0.043l-0.14-0.168c-0.028-0.038-0.028-0.038-0.028-0.052
	c0-0.014,0.008-0.014,0.021-0.014c0.053,0,0.278,0.021,0.322,0.021c0.358,0.015,0.658,0.029,1.001,0.029h1.332
	c0.125,0,0.175-0.043,0.175-0.146c0-0.045,0.017-0.198-0.057-0.359c-0.038-0.081-0.089-0.176-0.089-0.197
	c0-0.029,0.021-0.044,0.059-0.044c0.021,0,0.482,0.065,0.548,0.081c0.118,0.029,0.242,0.051,0.242,0.146
	c0,0.037-0.073,0.11-0.124,0.153c-0.038,0.038-0.059,0.088-0.059,0.183c0,0.146,0.037,0.183,0.169,0.183h1.198
	c0.343,0,0.38,0,0.505-0.183c0.073-0.109,0.183-0.249,0.285-0.249c0.124,0,0.657,0.417,0.657,0.52c0,0.103-0.131,0.103-0.395,0.103
	h-2.209c-0.226,0-0.226,0.088-0.226,0.476c0,0.109,0,0.233,0.226,0.233H85.876z M82.644,94.174c-0.117,0-0.212,0.066-0.212,0.175
	c0,0.651,0,0.702,0.22,0.702h1.14c0.214,0,0.214-0.109,0.214-0.307c0-0.504,0-0.57-0.214-0.57H82.644z M82.651,93.179
	c-0.211,0-0.211,0.067-0.211,0.498c0,0.19,0,0.307,0.211,0.307h1.14c0.214,0,0.214-0.065,0.214-0.498c0-0.189,0-0.308-0.214-0.308
	H82.651z M83.675,97.268c0,0.212-0.117,0.322-0.257,0.322c-0.166,0-0.189-0.051-0.371-0.548c-0.074-0.212-0.147-0.38-0.293-0.6
	c-0.015-0.022-0.029-0.044-0.029-0.059c0-0.014,0.015-0.014,0.029-0.014C82.849,96.382,83.675,96.72,83.675,97.268z M85.862,93.984
	c0.219,0,0.219-0.102,0.219-0.314c0-0.438,0-0.491-0.219-0.491H84.72c-0.218,0-0.218,0.104-0.218,0.315c0,0.439,0,0.49,0.218,0.49
	H85.862z M85.862,95.052c0.219,0,0.219-0.021,0.219-0.555c0-0.212,0-0.322-0.219-0.322H84.72c-0.218,0-0.218,0.037-0.218,0.563
	c0,0.212,0,0.314,0.218,0.314H85.862z"/>
<path fill="#FFFFFF" d="M89.479,93.918c-0.175,0-0.21,0.058-0.21,0.219c0,0.455,0.006,2.67,0.006,3.174c0,0.184,0,0.615-0.337,0.615
	c-0.233,0-0.233-0.234-0.233-0.329c0-0.081,0.008-0.234,0.015-0.359c0.008-0.05,0.037-1.798,0.037-1.996
	c0-0.812,0-2.567-0.066-3.254c-0.007-0.051-0.058-0.307-0.058-0.358s0.058-0.059,0.095-0.059c0.124,0,0.299,0.08,0.431,0.139
	c0.177,0.081,0.285,0.081,0.358,0.081h0.878c0.094,0,0.19,0,0.285-0.074c0.03-0.029,0.182-0.211,0.234-0.211
	c0.036,0,0.577,0.373,0.577,0.468c0,0.05-0.021,0.065-0.183,0.183c-0.088,0.065-0.088,0.167-0.088,0.256
	c0,0.204,0.022,1.205,0.022,1.433c0,0.175,0,0.432-0.329,0.432c-0.176,0-0.184-0.066-0.197-0.22
	c-0.016-0.117-0.124-0.139-0.22-0.139H89.479z M89.465,91.988c-0.219,0-0.219,0.102-0.219,0.439c0,0.161,0,0.285,0.219,0.285h1.022
	c0.222,0,0.222-0.124,0.222-0.285c0-0.337,0-0.439-0.229-0.439H89.465z M90.503,93.721c0.22,0,0.22-0.104,0.22-0.432
	c0-0.286,0-0.387-0.22-0.387h-1.03c-0.22,0-0.22,0.124-0.22,0.27c0,0.498,0,0.549,0.226,0.549H90.503z M92.843,93.882
	c-0.086,0-0.19,0.007-0.211,0.153c-0.052,0.292-0.365,0.292-0.373,0.292c-0.023,0-0.183,0-0.183-0.183
	c0-0.08,0.028-0.482,0.028-0.57c0-0.315-0.028-1.142-0.028-1.2c-0.008-0.109-0.045-0.607-0.045-0.666
	c0-0.065,0.015-0.161,0.11-0.161c0.072,0,0.249,0.087,0.38,0.161c0.161,0.081,0.344,0.081,0.46,0.081h0.842
	c0.073,0,0.176,0,0.277-0.066c0.029-0.022,0.176-0.184,0.229-0.184c0.028,0,0.248,0.147,0.291,0.176
	c0.22,0.153,0.242,0.168,0.242,0.249c0,0.058-0.015,0.073-0.154,0.183c-0.073,0.059-0.073,0.212-0.073,0.264
	c0,0.658,0.037,3.889,0.037,4.622c0,0.255-0.022,0.49-0.249,0.68c-0.161,0.138-0.381,0.226-0.49,0.226
	c-0.072,0-0.116-0.058-0.139-0.095c-0.116-0.197-0.183-0.3-0.328-0.424c-0.03-0.022-0.221-0.102-0.221-0.146
	c0-0.021,0.044-0.044,0.133-0.044c0.065,0,0.373,0.022,0.438,0.022c0.124,0,0.306-0.022,0.336-0.176
	c0.015-0.08,0.015-0.914,0.015-1.06c0-0.167,0-1.88-0.022-1.997c-0.028-0.138-0.153-0.138-0.226-0.138H92.843z M92.829,91.988
	c-0.234,0-0.234,0.102-0.234,0.344c0,0.264,0,0.358,0.234,0.358h1.067c0.226,0,0.226-0.103,0.226-0.343c0-0.264,0-0.359-0.226-0.359
	H92.829z M93.91,93.685c0.229,0,0.229-0.067,0.229-0.431c0-0.293,0-0.367-0.229-0.367h-1.074c-0.213,0-0.227,0.088-0.227,0.249
	c0,0.498,0,0.549,0.233,0.549H93.91z"/>
<path fill="#FFFFFF" d="M98.702,92.39c0.081,0,0.227,0,0.227-0.189c0-0.03-0.021-0.263-0.044-0.454
	c-0.006-0.051-0.08-0.271-0.08-0.314c0-0.044,0.044-0.066,0.087-0.066c0.097,0,0.711,0.037,0.711,0.184
	c0,0.029-0.103,0.139-0.116,0.167c-0.038,0.052-0.038,0.132-0.038,0.293c0,0.292,0,0.38,0.22,0.38h1.271c0.345,0,0.381,0,0.47-0.124
	c0.176-0.243,0.197-0.271,0.263-0.271c0.124,0,0.643,0.417,0.643,0.49c0,0.102-0.036,0.102-0.387,0.102h-4.738
	c-0.228,0-0.228,0.117-0.228,0.409c0,0.212,0.023,1.141,0.023,1.331c0,1.024-0.169,1.909-0.74,2.823
	c-0.072,0.109-0.343,0.519-0.423,0.519c-0.021,0-0.021-0.029-0.021-0.044c0-0.015,0.307-0.782,0.35-0.899
	c0.322-0.848,0.322-1.909,0.322-2.567c0-0.87-0.088-1.602-0.103-1.689c-0.008-0.044-0.065-0.234-0.065-0.271
	c0-0.03,0.015-0.065,0.058-0.065c0.045,0,0.461,0.167,0.549,0.197c0.183,0.058,0.256,0.058,0.373,0.058H98.702z M98.702,95.549
	c0.221,0,0.221-0.124,0.221-0.343c0-0.154,0.014-0.841,0.014-0.98c0-0.556-0.037-0.972-0.058-1.112
	c-0.009-0.028-0.037-0.167-0.037-0.197c0-0.059,0.043-0.081,0.081-0.081c0.021,0,0.694,0.11,0.694,0.234
	c0,0.036-0.125,0.168-0.14,0.197c-0.051,0.102-0.051,0.417-0.051,0.549c0,0.095,0,0.234,0.211,0.234h0.879
	c0.313,0,0.344,0,0.445-0.139c0.19-0.278,0.205-0.3,0.285-0.3c0.133,0,0.644,0.38,0.644,0.497c0,0.132-0.153,0.132-0.388,0.132
	h-1.856c-0.081,0-0.16,0.015-0.198,0.109c-0.014,0.03-0.021,0.044-0.021,0.936c0,0.147,0.008,0.263,0.22,0.263h0.972
	c0.059,0,0.146,0,0.219-0.051c0.037-0.029,0.199-0.19,0.241-0.19c0.097,0,0.563,0.278,0.563,0.38c0,0.051-0.176,0.19-0.204,0.219
	c-0.043,0.043-0.043,0.065-0.043,0.227c0,0.212,0.051,1.287,0.051,1.353c0,0.138,0,0.401-0.373,0.401
	c-0.19,0-0.19-0.072-0.204-0.248c-0.008-0.146-0.111-0.176-0.205-0.176h-2.538c-0.095,0-0.175,0.022-0.204,0.139
	c-0.023,0.094-0.081,0.358-0.411,0.358c-0.189,0-0.203-0.103-0.203-0.205c0-0.219,0.035-1.192,0.035-1.396
	c0-0.336-0.015-0.584-0.021-0.738c-0.007-0.051-0.044-0.308-0.044-0.358c0-0.022,0.03-0.037,0.059-0.037
	c0.081,0,0.146,0.03,0.533,0.234c0.119,0.059,0.197,0.087,0.337,0.087H98.702z M98.096,95.747c-0.108,0-0.19,0.029-0.213,0.138
	c-0.007,0.037-0.007,0.944-0.007,1.046c0,0.234,0.015,0.343,0.235,0.343h2.552c0.094,0,0.189-0.037,0.205-0.146v-1.06
	c0-0.212,0-0.322-0.214-0.322H98.096z"/>
<path fill="#FFFFFF" d="M30.317,102.584h1.033v3.802l4.051-3.802h1.359l-4.866,4.546l5.246,5.587h-1.35l-4.44-4.72v4.72h-1.033
	V102.584z"/>
<path fill="#FFFFFF" d="M40.133,102.584h6.097v0.993h-5.034v3.175h4.99v0.991h-4.99v3.983h4.99v0.992h-6.053V102.584z"/>
<path fill="#FFFFFF" d="M49.493,112.718v-10.133h0.222l6.743,7.768v-7.768h0.999v10.133h-0.228l-6.69-7.673v7.673H49.493z"/>
<path fill="#FFFFFF" d="M60.77,102.584h1.032v3.802l4.051-3.802h1.36l-4.866,4.546l5.245,5.587h-1.349l-4.441-4.72v4.72H60.77
	V102.584z"/>
<path fill="#FFFFFF" d="M74.636,102.33c1.534,0,2.819,0.512,3.852,1.537c1.036,1.024,1.552,2.284,1.552,3.781
	c0,1.483-0.516,2.742-1.547,3.775c-1.031,1.033-2.29,1.55-3.774,1.55c-1.503,0-2.771-0.515-3.806-1.544
	c-1.033-1.028-1.55-2.272-1.55-3.733c0-0.973,0.235-1.876,0.707-2.707c0.47-0.831,1.112-1.482,1.926-1.953
	S73.688,102.33,74.636,102.33z M74.68,103.315c-0.749,0-1.461,0.195-2.132,0.586c-0.671,0.39-1.195,0.917-1.573,1.578
	c-0.376,0.662-0.565,1.4-0.565,2.213c0,1.204,0.418,2.221,1.253,3.051c0.834,0.83,1.84,1.244,3.018,1.244
	c0.788,0,1.515-0.191,2.184-0.572c0.67-0.382,1.191-0.904,1.566-1.565c0.375-0.662,0.563-1.396,0.563-2.206
	c0-0.804-0.188-1.532-0.563-2.183c-0.375-0.65-0.902-1.171-1.584-1.561C76.166,103.51,75.444,103.315,74.68,103.315z"/>
<path fill="#FFFFFF" d="M82.811,102.584h1.014v6.116c0,0.726,0.014,1.178,0.041,1.358c0.05,0.399,0.167,0.733,0.351,1.001
	c0.184,0.27,0.467,0.494,0.849,0.676c0.381,0.182,0.765,0.272,1.149,0.272c0.335,0,0.656-0.071,0.965-0.214
	c0.308-0.142,0.564-0.339,0.771-0.593c0.206-0.252,0.357-0.558,0.455-0.916c0.068-0.258,0.103-0.785,0.103-1.585v-6.116h1.013v6.116
	c0,0.906-0.089,1.636-0.264,2.195c-0.178,0.558-0.531,1.044-1.062,1.457c-0.53,0.413-1.173,0.62-1.925,0.62
	c-0.817,0-1.519-0.196-2.101-0.586c-0.584-0.39-0.975-0.907-1.172-1.55c-0.124-0.395-0.187-1.107-0.187-2.136V102.584z"/>
<path fill="#FFFFFF" d="M92.72,112.718v-10.133h2.101c1.517,0,2.616,0.122,3.3,0.365c0.983,0.345,1.752,0.942,2.306,1.792
	c0.553,0.85,0.829,1.862,0.829,3.038c0,1.016-0.22,1.908-0.658,2.68c-0.438,0.772-1.008,1.341-1.707,1.708
	c-0.7,0.368-1.682,0.552-2.945,0.552H92.72z M93.692,111.76h1.169c1.401,0,2.373-0.087,2.915-0.262
	c0.764-0.248,1.361-0.693,1.798-1.339c0.437-0.644,0.653-1.432,0.653-2.363c0-0.978-0.235-1.813-0.708-2.506
	c-0.473-0.692-1.133-1.167-1.979-1.424c-0.632-0.193-1.678-0.289-3.134-0.289h-0.715V111.76z"/>
<path fill="#FFFFFF" d="M108.748,102.33c1.535,0,2.819,0.512,3.854,1.537c1.033,1.024,1.551,2.284,1.551,3.781
	c0,1.483-0.517,2.742-1.549,3.775c-1.031,1.033-2.288,1.55-3.774,1.55c-1.501,0-2.77-0.515-3.804-1.544
	c-1.033-1.028-1.551-2.272-1.551-3.733c0-0.973,0.235-1.876,0.706-2.707c0.472-0.831,1.113-1.482,1.928-1.953
	C106.922,102.565,107.802,102.33,108.748,102.33z M108.794,103.315c-0.75,0-1.46,0.195-2.132,0.586
	c-0.672,0.39-1.196,0.917-1.573,1.578c-0.378,0.662-0.566,1.4-0.566,2.213c0,1.204,0.418,2.221,1.253,3.051
	c0.835,0.83,1.841,1.244,3.019,1.244c0.786,0,1.514-0.191,2.185-0.572c0.668-0.382,1.19-0.904,1.565-1.565
	c0.374-0.662,0.562-1.396,0.562-2.206c0-0.804-0.188-1.532-0.562-2.183c-0.375-0.65-0.903-1.171-1.583-1.561
	C110.279,103.51,109.557,103.315,108.794,103.315z"/>
<path fill="#FFFFFF" d="M62.905,58.78c-0.223-1.393-0.336-2.802-0.336-4.189c0-1.386,0.113-2.794,0.336-4.185l0.743,0.119
	c-0.217,1.352-0.328,2.72-0.328,4.066c0,1.347,0.111,2.716,0.328,4.07L62.905,58.78z"/>
<path fill="#FFFFFF" d="M67.003,51.095c-1.241,0-2.512-0.086-3.776-0.257c-0.101-0.014-0.191-0.067-0.252-0.148
	c-0.06-0.081-0.085-0.184-0.068-0.284C65.013,37.319,76.41,27.82,90.007,27.82c1.226,0,2.495,0.087,3.772,0.259
	c0.101,0.014,0.191,0.067,0.252,0.149c0.06,0.081,0.085,0.184,0.069,0.284C91.992,41.598,80.597,51.095,67.003,51.095z
	 M63.712,50.142c1.104,0.134,2.209,0.202,3.291,0.202c13.089,0,24.083-9.047,26.291-21.569c-1.114-0.135-2.218-0.203-3.287-0.203
	C76.914,28.572,65.92,37.62,63.712,50.142z"/>
<path fill="#FFFFFF" d="M90.007,81.366c-13.596,0-24.993-9.499-27.101-22.585c-0.017-0.101,0.009-0.203,0.068-0.284
	c0.061-0.082,0.151-0.135,0.252-0.149c1.277-0.172,2.548-0.26,3.776-0.26c13.594,0,24.99,9.499,27.098,22.586
	c0.016,0.099-0.01,0.202-0.069,0.283c-0.061,0.082-0.151,0.135-0.252,0.148C92.505,81.278,91.235,81.366,90.007,81.366z
	 M63.712,59.043c2.209,12.523,13.203,21.571,26.295,21.571c1.07,0,2.175-0.069,3.287-0.203C91.087,67.888,80.093,58.84,67.003,58.84
	C65.932,58.84,64.827,58.908,63.712,59.043z"/>
<path fill="#FFFFFF" d="M51.007,82.3l-0.642-0.391c4.591-7.537,7.119-17.239,7.119-27.321c0-10.078-2.528-19.778-7.118-27.312
	l0.642-0.392c4.661,7.651,7.229,17.49,7.229,27.704C58.236,64.807,55.669,74.648,51.007,82.3z"/>
<path fill="#FFFFFF" d="M63.227,50.838c-3.445-0.464-6.723-1.546-9.74-3.217l0.365-0.658c2.936,1.626,6.123,2.679,9.476,3.13
	L63.227,50.838z"/>
<path fill="#FFFFFF" d="M53.885,62.203l-0.362-0.658c3.009-1.66,6.274-2.736,9.704-3.197l0.101,0.745
	C59.989,59.542,56.812,60.588,53.885,62.203z"/>
<rect x="74.378" y="28.183" transform="matrix(0.5936 0.8047 -0.8047 0.5936 64.3389 -43.0071)" fill="#FFFFFF" width="0.752" height="28.04"/>
<rect x="60.734" y="66.663" transform="matrix(0.8043 0.5943 -0.5943 0.8043 54.4688 -31.3017)" fill="#FFFFFF" width="28.04" height="0.752"/>
</svg>
