<svg xmlns="http://www.w3.org/2000/svg" viewBox="0 0 131.57 131.57"><defs><style>.cls-1{fill:#fff;}.cls-2{fill:#680c58;}</style></defs><g id="レイヤー_2" data-name="レイヤー 2"><g id="レイヤー_1-2" data-name="レイヤー 1"><circle class="cls-1" cx="65.79" cy="65.79" r="64.29" transform="translate(-13.35 114.7) rotate(-76.72)"/><path class="cls-2" d="M65.79,3A62.79,62.79,0,1,1,3,65.79,62.86,62.86,0,0,1,65.79,3m0-3a65.79,65.79,0,1,0,65.78,65.79A65.78,65.78,0,0,0,65.79,0Z"/><rect class="cls-2" x="34.55" y="80.14" width="62.46" height="20.92"/><polygon class="cls-2" points="21.91 88.51 65.78 28.5 109.66 88.51 21.91 88.51"/><path class="cls-1" d="M58.66,72.36H72.91a0,0,0,0,1,0,0V90.85A7.13,7.13,0,0,1,65.79,98h0a7.13,7.13,0,0,1-7.13-7.13V72.36a0,0,0,0,1,0,0Z" transform="translate(131.57 170.33) rotate(180)"/><rect class="cls-1" x="39.79" y="80.26" width="6.18" height="6.18"/><rect class="cls-1" x="46.97" y="80.26" width="6.18" height="6.18"/><rect class="cls-1" x="39.79" y="87.45" width="6.18" height="6.18"/><rect class="cls-1" x="46.97" y="87.45" width="6.18" height="6.18"/><rect class="cls-1" x="78.42" y="80.26" width="6.18" height="6.18"/><rect class="cls-1" x="85.6" y="80.26" width="6.18" height="6.18"/><rect class="cls-1" x="78.42" y="87.45" width="6.18" height="6.18"/><rect class="cls-1" x="85.6" y="87.45" width="6.18" height="6.18"/></g></g></svg>