<svg xmlns="http://www.w3.org/2000/svg" viewBox="0 0 131.57 131.57"><defs><style>.cls-1{fill:#fff;}.cls-2{fill:#680c58;}</style></defs><g id="レイヤー_2" data-name="レイヤー 2"><g id="レイヤー_1-2" data-name="レイヤー 1"><circle class="cls-1" cx="65.79" cy="65.79" r="64.29"/><path class="cls-2" d="M65.79,3A62.79,62.79,0,1,1,3,65.79,62.86,62.86,0,0,1,65.79,3m0-3a65.79,65.79,0,1,0,65.78,65.79A65.78,65.78,0,0,0,65.79,0Z"/><path class="cls-2" d="M64.27,102.05H45.64V48a1.19,1.19,0,0,1,.67-1.07l8.14-3.82a1.19,1.19,0,0,1,1,0l8.14,3.82A1.19,1.19,0,0,1,64.27,48Z"/><rect class="cls-2" x="51.23" y="29.31" width="7.46" height="48.84"/><path class="cls-2" d="M71.56,60.53a29.35,29.35,0,0,0-3,12.41c0,8.21,4.79,14.86,10.69,14.86s10.69-6.65,10.69-14.86a29.5,29.5,0,0,0-3-12.41Z"/><rect class="cls-2" x="77.98" y="84.89" width="2.54" height="17.16"/><polygon class="cls-2" points="71.96 102.27 79.25 98.62 86.54 102.27 71.96 102.27"/></g></g></svg>