<svg xmlns="http://www.w3.org/2000/svg" viewBox="0 0 131.57 131.57"><defs><style>.cls-1{fill:#fff;}.cls-2{fill:#680c58;}.cls-3{fill:none;stroke:#fff;stroke-miterlimit:10;stroke-width:1.5px;}</style></defs><g id="レイヤー_2" data-name="レイヤー 2"><g id="レイヤー_1-2" data-name="レイヤー 1"><circle class="cls-1" cx="65.79" cy="65.79" r="64.29" transform="translate(-9.69 120.18) rotate(-80.78)"/><path class="cls-2" d="M65.79,3A62.79,62.79,0,1,1,3,65.79,62.86,62.86,0,0,1,65.79,3m0-3a65.79,65.79,0,1,0,65.78,65.79A65.78,65.78,0,0,0,65.79,0Z"/><polygon class="cls-2" points="79.25 53.77 52.32 53.77 60.6 40.24 70.97 40.24 79.25 53.77"/><rect class="cls-2" x="28.25" y="47.88" width="75.06" height="43.45" rx="4.6"/><circle class="cls-3" cx="65.79" cy="69.6" r="15.83"/><rect class="cls-1" x="33.64" y="54.65" width="9.94" height="29.92"/></g></g></svg>